<?xml version="1.0" encoding="iso-8859-1"?>
<!-- Generator: Adobe Illustrator 17.1.0, SVG Export Plug-In . SVG Version: 6.00 Build 0)  -->
<!DOCTYPE svg PUBLIC "-//W3C//DTD SVG 1.1//EN" "http://www.w3.org/Graphics/SVG/1.1/DTD/svg11.dtd">
<svg version="1.1" xmlns="http://www.w3.org/2000/svg" xmlns:xlink="http://www.w3.org/1999/xlink" x="0px" y="0px"
	 viewBox="0 0 1024 1024" style="enable-background:new 0 0 1024 1024;" xml:space="preserve">
<g id="bookmark-2">
	<path id="drop_shadow_23_" style="opacity:0.1;" d="M684.399,666.967l-52.309-34.884V283.285h52.309V666.967z M422.809,283.285
		h-52.34v383.682l52.34-34.884V283.285z M1016.984,527.435c0,270.374-219.152,489.558-489.542,489.558
		c-270.375,0-489.542-219.184-489.542-489.558c0-270.343,219.167-489.542,489.542-489.542
		C797.832,37.893,1016.984,257.092,1016.984,527.435z M736.725,248.402H318.16v558.096l209.282-174.415l209.282,174.415V248.402z"/>
	<path id="color_24_" style="fill:#FFFFFF;" d="M653.515,636.113l-52.308-34.914V252.4h52.308V636.113z M391.925,252.4h-52.341
		v383.713l52.341-34.914V252.4z M986.1,496.581c0,270.343-219.152,489.526-489.526,489.526
		c-270.39,0-489.558-219.184-489.558-489.526c0-270.374,219.168-489.573,489.558-489.573C766.947,7.008,986.1,226.207,986.1,496.581
		z M705.855,217.518H287.291v558.096l209.282-174.414l209.282,174.414V217.518z"/>
</g>
<g id="Layer_1">
</g>
</svg>
