<?xml version="1.0" encoding="iso-8859-1"?>
<!-- Generator: Adobe Illustrator 17.1.0, SVG Export Plug-In . SVG Version: 6.00 Build 0)  -->
<!DOCTYPE svg PUBLIC "-//W3C//DTD SVG 1.1//EN" "http://www.w3.org/Graphics/SVG/1.1/DTD/svg11.dtd">
<svg version="1.1" xmlns="http://www.w3.org/2000/svg" xmlns:xlink="http://www.w3.org/1999/xlink" x="0px" y="0px"
	 viewBox="0 0 1024 1024" style="enable-background:new 0 0 1024 1024;" xml:space="preserve">
<g id="facebook">
	<path id="drop_shadow_8_" style="opacity:0.1;" d="M527.442,37.885c-270.391,0-489.558,219.184-489.558,489.558
		S257.052,1017,527.442,1017C797.816,1017,1017,797.816,1017,527.442S797.816,37.885,527.442,37.885z M656.569,346.228
		c-24.116,0-50.137,0-62.462,0c-12.389,0-24.888,12.924-24.888,22.479c0,9.603,0,64.257,0,64.257s77.196,0,87.208,0
		c-3.495,49.27-10.688,94.322-10.688,94.322h-76.944V806.49H454.119V527.285h-55.803V433.34h55.803c0,0,0-62.745,0-76.833
		c0-14.073-2.849-108.112,117.51-108.112c16.118,0,52.749,0,84.94,0C656.569,289.275,656.569,333.414,656.569,346.228z"/>
	<path id="color_10_" style="fill:#FFFFFF;" d="M496.558,7C226.183,7,7,226.199,7,496.558c0,270.39,219.183,489.558,489.558,489.558
		c270.39,0,489.558-219.168,489.558-489.558C986.115,226.199,766.947,7,496.558,7z M625.685,315.343c-24.116,0-50.137,0-62.446,0
		c-12.389,0-24.903,12.924-24.903,22.494c0,9.603,0,64.241,0,64.241s77.196,0,87.208,0c-3.495,49.271-10.673,94.322-10.673,94.322
		h-76.96v279.205H423.234V496.4h-55.804v-93.944h55.804c0,0,0-62.746,0-76.818c0-14.073-2.85-108.128,117.51-108.128
		c16.135,0,52.749,0,84.94,0C625.685,258.391,625.685,302.529,625.685,315.343z"/>
</g>
<g id="Layer_1">
</g>
</svg>
