<?xml version="1.0" encoding="iso-8859-1"?>
<!-- Generator: Adobe Illustrator 17.1.0, SVG Export Plug-In . SVG Version: 6.00 Build 0)  -->
<!DOCTYPE svg PUBLIC "-//W3C//DTD SVG 1.1//EN" "http://www.w3.org/Graphics/SVG/1.1/DTD/svg11.dtd">
<svg version="1.1" xmlns="http://www.w3.org/2000/svg" xmlns:xlink="http://www.w3.org/1999/xlink" x="0px" y="0px"
	 viewBox="0 0 1024 1024" style="enable-background:new 0 0 1024 1024;" xml:space="preserve">
<g id="heart">
	<path id="drop_shadow_5_" style="opacity:0.1;" d="M527.442,37.877C257.068,37.877,37.9,257.068,37.9,527.435
		C37.9,797.809,257.068,1017,527.442,1017c270.405,0,489.542-219.191,489.542-489.565
		C1016.984,257.068,797.848,37.877,527.442,37.877z M806.475,452.671c-7.179,84.492-76.487,188.645-279.064,319.307
		C324.866,641.315,255.557,537.163,248.395,452.671v-29.334c7.666-88.247,70.852-134.321,125.569-139.17
		c8.988-0.882,17.378-1.268,25.265-1.268c63.154,0,93.488,62.297,128.182,100.375c34.711-38.078,65.028-100.375,128.151-100.375
		c7.918,0,16.387,0.386,25.328,1.268c54.701,4.849,117.793,50.923,125.585,139.17V452.671z"/>
	<path id="color_6_" style="fill:#FFFFFF;" d="M496.573,7C226.183,7,7.016,226.191,7.016,496.55
		c0,270.382,219.168,489.565,489.558,489.565c270.391,0,489.526-219.184,489.526-489.565C986.1,226.191,766.964,7,496.573,7z
		 M775.605,421.786c-7.178,84.5-76.487,188.653-279.079,319.314C293.981,610.44,224.688,506.286,217.525,421.786v-29.334
		c7.65-88.246,70.852-134.321,125.569-139.17c8.988-0.882,17.363-1.268,25.249-1.268c63.17,0,93.504,62.305,128.183,100.375
		c34.726-38.07,65.027-100.375,128.166-100.375c7.902,0,16.387,0.386,25.312,1.268c54.701,4.849,117.809,50.924,125.601,139.17
		V421.786z"/>
</g>
<g id="Layer_1">
</g>
</svg>
