<?xml version="1.0" encoding="iso-8859-1"?>
<!-- Generator: Adobe Illustrator 17.1.0, SVG Export Plug-In . SVG Version: 6.00 Build 0)  -->
<!DOCTYPE svg PUBLIC "-//W3C//DTD SVG 1.1//EN" "http://www.w3.org/Graphics/SVG/1.1/DTD/svg11.dtd">
<svg version="1.1" xmlns="http://www.w3.org/2000/svg" xmlns:xlink="http://www.w3.org/1999/xlink" x="0px" y="0px"
	 viewBox="0 0 1024 1024" style="enable-background:new 0 0 1024 1024;" xml:space="preserve">
<g id="mail">
	<path id="drop_shadow_4_" style="opacity:0.1;" d="M527.442,37.877c-270.375,0-489.558,219.199-489.558,489.558
		c0,270.39,219.183,489.565,489.558,489.565C797.848,1017,1017,797.824,1017,527.435C1017,257.076,797.848,37.877,527.442,37.877z
		 M783.083,339.23l-249.706,213.61L273.313,339.23H783.083z M248.379,358.766l179.515,147.489L248.379,698.11V358.766z
		 M274.352,715.662l177.532-189.754l71.844,59.093l10.074,8.225l9.807-8.413l70.176-60.093l174.761,190.943H274.352z
		 M806.475,689.453l-169.11-184.891l169.11-144.711V689.453z"/>
	<path id="color_5_" style="fill:#FFFFFF;" d="M496.573,7C226.183,7,7,226.199,7,496.55c0,270.397,219.183,489.565,489.573,489.565
		c270.391,0,489.542-219.168,489.542-489.565C986.115,226.199,766.964,7,496.573,7z M752.198,308.346L502.492,521.956
		L242.429,308.346H752.198z M217.51,327.889l179.499,147.489L217.51,667.234V327.889z M243.467,684.785l177.532-189.754
		l71.844,59.085l10.074,8.225l9.807-8.414l70.175-60.093l174.776,190.951H243.467z M775.605,658.576L606.479,473.686
		l169.126-144.711V658.576z"/>
</g>
<g id="Layer_1">
</g>
</svg>
