<?xml version="1.0" encoding="iso-8859-1"?>
<!-- Generator: Adobe Illustrator 17.1.0, SVG Export Plug-In . SVG Version: 6.00 Build 0)  -->
<!DOCTYPE svg PUBLIC "-//W3C//DTD SVG 1.1//EN" "http://www.w3.org/Graphics/SVG/1.1/DTD/svg11.dtd">
<svg version="1.1" xmlns="http://www.w3.org/2000/svg" xmlns:xlink="http://www.w3.org/1999/xlink" x="0px" y="0px"
	 viewBox="0 0 1024 1024" style="enable-background:new 0 0 1024 1024;" xml:space="preserve">
<g id="twitter">
	<path id="drop_shadow_16_" style="opacity:0.1;" d="M527.442,37.893C257.068,37.893,37.9,257.084,37.9,527.442
		c0,270.366,219.167,489.55,489.542,489.55c270.405,0,489.542-219.184,489.542-489.55
		C1016.984,257.084,797.848,37.893,527.442,37.893z M749.396,413.624c0.189,4.888,0.299,9.87,0.299,14.82
		c0,151.283-115.164,325.776-325.784,325.776c-64.65,0-124.845-18.969-175.517-51.442c8.988,1.038,18.055,1.582,27.327,1.582
		c53.662,0,103.027-18.3,142.207-49.019c-50.121-0.905-92.386-33.994-106.978-79.502c7.037,1.354,14.167,2.077,21.566,2.077
		c10.436,0,20.526-1.409,30.176-4.037c-52.418-10.523-91.866-56.787-91.866-112.236c0-0.512,0-0.992,0-1.448
		c15.442,8.532,33.072,13.687,51.883,14.316c-30.743-20.542-50.971-55.606-50.971-95.314c0-20.999,5.651-40.659,15.521-57.565
		c56.48,69.262,140.87,114.849,235.995,119.603c-1.936-8.374-2.959-17.079-2.959-26.067c0-63.21,51.238-114.503,114.455-114.503
		c32.979,0,62.746,13.931,83.603,36.166c26.1-5.124,50.577-14.655,72.694-27.769c-8.532,26.714-26.697,49.137-50.325,63.32
		c23.155-2.739,45.24-8.878,65.752-18.017C791.158,377.348,771.685,397.489,749.396,413.624z"/>
	<path id="color_18_" style="fill:#FFFFFF;" d="M496.573,7.008c-270.39,0-489.558,219.199-489.558,489.55
		c0,270.374,219.168,489.558,489.558,489.558c270.391,0,489.526-219.184,489.526-489.558C986.1,226.207,766.964,7.008,496.573,7.008
		z M718.512,382.747c0.188,4.88,0.299,9.862,0.299,14.821c0,151.282-115.164,325.775-325.784,325.775
		c-64.65,0-124.845-18.968-175.501-51.45c8.988,1.039,18.04,1.582,27.311,1.582c53.662,0,103.027-18.292,142.208-49.019
		c-50.121-0.905-92.387-33.994-106.978-79.494c7.036,1.346,14.167,2.069,21.581,2.069c10.421,0,20.511-1.4,30.161-4.029
		c-52.403-10.523-91.867-56.795-91.867-112.244c0-0.504,0-0.984,0-1.448c15.442,8.54,33.088,13.695,51.884,14.316
		c-30.743-20.534-50.971-55.599-50.971-95.306c0-21.007,5.667-40.668,15.52-57.566c56.48,69.262,140.87,114.849,235.995,119.595
		c-1.936-8.366-2.943-17.071-2.943-26.06c0-63.218,51.223-114.511,114.456-114.511c32.978,0,62.729,13.931,83.587,36.174
		c26.099-5.124,50.593-14.655,72.693-27.775c-8.516,26.721-26.697,49.137-50.31,63.327c23.155-2.747,45.226-8.878,65.752-18.016
		C760.289,346.464,740.801,366.612,718.512,382.747z"/>
</g>
<g id="Layer_1">
</g>
</svg>
